name C:\Users\u0101727\Documents\MyRepositories\upper-imu-dc\OpenSim\subject0\MA\ResultsMA\grid_4nodes_9dim\angles_7.mot
datacolumns 10
datarows 47
range 725.01000000 725.47000000
endheader 
time	clav_prot	clav_elev	scapula_abduction	scapula_elevation	scapula_upward_rot	scapula_winging	plane_elv	shoulder_elv	axial_rot	
        725.01000000	        -50.00000000	          0.00000000	         15.00000000	        -10.00000000	         90.00000000	          0.00000000	        -30.00000000	        -10.00000000	        -30.00000000	
        725.02000000	        -38.33333333	          0.00000000	         15.00000000	        -10.00000000	         90.00000000	          0.00000000	        -30.00000000	        -10.00000000	        -30.00000000	
        725.03000000	        -26.66666667	          0.00000000	         15.00000000	        -10.00000000	         90.00000000	          0.00000000	        -30.00000000	        -10.00000000	        -30.00000000	
        725.04000000	        -15.00000000	          0.00000000	         15.00000000	        -10.00000000	         90.00000000	          0.00000000	        -30.00000000	        -10.00000000	        -30.00000000	
        725.05000000	        -50.00000000	         10.00000000	         15.00000000	        -10.00000000	         90.00000000	          0.00000000	        -30.00000000	        -10.00000000	        -30.00000000	
        725.06000000	        -38.33333333	         10.00000000	         15.00000000	        -10.00000000	         90.00000000	          0.00000000	        -30.00000000	        -10.00000000	        -30.00000000	
        725.07000000	        -26.66666667	         10.00000000	         15.00000000	        -10.00000000	         90.00000000	          0.00000000	        -30.00000000	        -10.00000000	        -30.00000000	
        725.08000000	        -15.00000000	         10.00000000	         15.00000000	        -10.00000000	         90.00000000	          0.00000000	        -30.00000000	        -10.00000000	        -30.00000000	
        725.09000000	        -50.00000000	         20.00000000	         15.00000000	        -10.00000000	         90.00000000	          0.00000000	        -30.00000000	        -10.00000000	        -30.00000000	
        725.10000000	        -38.33333333	         20.00000000	         15.00000000	        -10.00000000	         90.00000000	          0.00000000	        -30.00000000	        -10.00000000	        -30.00000000	
        725.11000000	        -26.66666667	         20.00000000	         15.00000000	        -10.00000000	         90.00000000	          0.00000000	        -30.00000000	        -10.00000000	        -30.00000000	
        725.12000000	        -15.00000000	         20.00000000	         15.00000000	        -10.00000000	         90.00000000	          0.00000000	        -30.00000000	        -10.00000000	        -30.00000000	
        725.13000000	        -50.00000000	        -10.00000000	        -40.00000000	         -3.33333333	         90.00000000	          0.00000000	        -30.00000000	        -10.00000000	        -30.00000000	
        725.14000000	        -38.33333333	        -10.00000000	        -40.00000000	         -3.33333333	         90.00000000	          0.00000000	        -30.00000000	        -10.00000000	        -30.00000000	
        725.15000000	        -26.66666667	        -10.00000000	        -40.00000000	         -3.33333333	         90.00000000	          0.00000000	        -30.00000000	        -10.00000000	        -30.00000000	
        725.16000000	        -15.00000000	        -10.00000000	        -40.00000000	         -3.33333333	         90.00000000	          0.00000000	        -30.00000000	        -10.00000000	        -30.00000000	
        725.17000000	        -50.00000000	          0.00000000	        -40.00000000	         -3.33333333	         90.00000000	          0.00000000	        -30.00000000	        -10.00000000	        -30.00000000	
        725.18000000	        -38.33333333	          0.00000000	        -40.00000000	         -3.33333333	         90.00000000	          0.00000000	        -30.00000000	        -10.00000000	        -30.00000000	
        725.19000000	        -26.66666667	          0.00000000	        -40.00000000	         -3.33333333	         90.00000000	          0.00000000	        -30.00000000	        -10.00000000	        -30.00000000	
        725.20000000	        -15.00000000	          0.00000000	        -40.00000000	         -3.33333333	         90.00000000	          0.00000000	        -30.00000000	        -10.00000000	        -30.00000000	
        725.21000000	        -50.00000000	         10.00000000	        -40.00000000	         -3.33333333	         90.00000000	          0.00000000	        -30.00000000	        -10.00000000	        -30.00000000	
        725.22000000	        -38.33333333	         10.00000000	        -40.00000000	         -3.33333333	         90.00000000	          0.00000000	        -30.00000000	        -10.00000000	        -30.00000000	
        725.23000000	        -26.66666667	         10.00000000	        -40.00000000	         -3.33333333	         90.00000000	          0.00000000	        -30.00000000	        -10.00000000	        -30.00000000	
        725.24000000	        -15.00000000	         10.00000000	        -40.00000000	         -3.33333333	         90.00000000	          0.00000000	        -30.00000000	        -10.00000000	        -30.00000000	
        725.25000000	        -50.00000000	         20.00000000	        -40.00000000	         -3.33333333	         90.00000000	          0.00000000	        -30.00000000	        -10.00000000	        -30.00000000	
        725.26000000	        -38.33333333	         20.00000000	        -40.00000000	         -3.33333333	         90.00000000	          0.00000000	        -30.00000000	        -10.00000000	        -30.00000000	
        725.27000000	        -26.66666667	         20.00000000	        -40.00000000	         -3.33333333	         90.00000000	          0.00000000	        -30.00000000	        -10.00000000	        -30.00000000	
        725.28000000	        -15.00000000	         20.00000000	        -40.00000000	         -3.33333333	         90.00000000	          0.00000000	        -30.00000000	        -10.00000000	        -30.00000000	
        725.29000000	        -50.00000000	        -10.00000000	        -21.66666667	         -3.33333333	         90.00000000	          0.00000000	        -30.00000000	        -10.00000000	        -30.00000000	
        725.30000000	        -38.33333333	        -10.00000000	        -21.66666667	         -3.33333333	         90.00000000	          0.00000000	        -30.00000000	        -10.00000000	        -30.00000000	
        725.31000000	        -26.66666667	        -10.00000000	        -21.66666667	         -3.33333333	         90.00000000	          0.00000000	        -30.00000000	        -10.00000000	        -30.00000000	
        725.32000000	        -15.00000000	        -10.00000000	        -21.66666667	         -3.33333333	         90.00000000	          0.00000000	        -30.00000000	        -10.00000000	        -30.00000000	
        725.33000000	        -50.00000000	          0.00000000	        -21.66666667	         -3.33333333	         90.00000000	          0.00000000	        -30.00000000	        -10.00000000	        -30.00000000	
        725.34000000	        -38.33333333	          0.00000000	        -21.66666667	         -3.33333333	         90.00000000	          0.00000000	        -30.00000000	        -10.00000000	        -30.00000000	
        725.35000000	        -26.66666667	          0.00000000	        -21.66666667	         -3.33333333	         90.00000000	          0.00000000	        -30.00000000	        -10.00000000	        -30.00000000	
        725.36000000	        -15.00000000	          0.00000000	        -21.66666667	         -3.33333333	         90.00000000	          0.00000000	        -30.00000000	        -10.00000000	        -30.00000000	
        725.37000000	        -50.00000000	         10.00000000	        -21.66666667	         -3.33333333	         90.00000000	          0.00000000	        -30.00000000	        -10.00000000	        -30.00000000	
        725.38000000	        -38.33333333	         10.00000000	        -21.66666667	         -3.33333333	         90.00000000	          0.00000000	        -30.00000000	        -10.00000000	        -30.00000000	
        725.39000000	        -26.66666667	         10.00000000	        -21.66666667	         -3.33333333	         90.00000000	          0.00000000	        -30.00000000	        -10.00000000	        -30.00000000	
        725.40000000	        -15.00000000	         10.00000000	        -21.66666667	         -3.33333333	         90.00000000	          0.00000000	        -30.00000000	        -10.00000000	        -30.00000000	
        725.41000000	        -50.00000000	         20.00000000	        -21.66666667	         -3.33333333	         90.00000000	          0.00000000	        -30.00000000	        -10.00000000	        -30.00000000	
        725.42000000	        -38.33333333	         20.00000000	        -21.66666667	         -3.33333333	         90.00000000	          0.00000000	        -30.00000000	        -10.00000000	        -30.00000000	
        725.43000000	        -26.66666667	         20.00000000	        -21.66666667	         -3.33333333	         90.00000000	          0.00000000	        -30.00000000	        -10.00000000	        -30.00000000	
        725.44000000	        -15.00000000	         20.00000000	        -21.66666667	         -3.33333333	         90.00000000	          0.00000000	        -30.00000000	        -10.00000000	        -30.00000000	
        725.45000000	        -50.00000000	        -10.00000000	         -3.33333333	         -3.33333333	         90.00000000	          0.00000000	        -30.00000000	        -10.00000000	        -30.00000000	
        725.46000000	        -38.33333333	        -10.00000000	         -3.33333333	         -3.33333333	         90.00000000	          0.00000000	        -30.00000000	        -10.00000000	        -30.00000000	
        725.47000000	        -26.66666667	        -10.00000000	         -3.33333333	         -3.33333333	         90.00000000	          0.00000000	        -30.00000000	        -10.00000000	        -30.00000000	
